<?xml version="1.0" standalone="no"?>
<!DOCTYPE svg PUBLIC "-//W3C//DTD SVG 20010904//EN"
 "http://www.w3.org/TR/2001/REC-SVG-20010904/DTD/svg10.dtd">
<svg version="1.0" xmlns="http://www.w3.org/2000/svg"
 width="395.000000pt" height="395.000000pt" viewBox="0 0 395.000000 395.000000"
 preserveAspectRatio="xMidYMid meet">
<metadata>
Created by potrace 1.11, written by Peter Selinger 2001-2013
</metadata>
<g transform="translate(0.000000,395.000000) scale(0.100000,-0.100000)"
fill="#000000" stroke="none">
<path d="M1704 3935 c-813 -121 -1459 -705 -1650 -1490 -13 -55 -27 -120 -30
-145 -3 -25 -10 -67 -14 -95 -5 -27 -7 -147 -6 -265 3 -183 7 -234 29 -342
168 -835 833 -1465 1669 -1582 128 -17 374 -20 499 -6 858 101 1536 728 1715
1585 24 114 28 156 30 345 1 118 -1 238 -6 265 -4 28 -11 70 -14 95 -31 229
-157 550 -301 765 -305 455 -753 751 -1295 857 -136 26 -488 33 -626 13z"/>
</g>
</svg>
